<?xml version="1.0" encoding="utf-8"?>
<svg width="279.22012" height="548.36157" viewBox="0 0 932.00005 1829.5644" fill="none" version="1.1" id="svg884" xmlns="http://www.w3.org/2000/svg" xmlns:xlink="http://www.w3.org/1999/xlink">
  <path fill-rule="evenodd" clip-rule="evenodd" d="M 725.91,1080.6196 C 840.93,999.1096 916,864.9396 916,713.2296 916,464.7016 744,141.2296 466,-0.27039953 190.5,148.7296 16,464.7016 16,713.2296 c 0,151.71 75.07,285.88 190.09,367.39 -4.11,0.55 -8.14,1.25 -12.09,2.11 -87.39,19.07 -194,163.05 -194,163.05 h 264 c 46.97,0 91.63,-17.64 126.96,-37.43 17.16,22.7 44.38,37.38 75.04,37.38 30.66,0 57.89,-14.68 75.04,-37.38 35.33,19.79 79.99,37.43 126.96,37.43 h 264 c 0,0 -106.61,-143.98 -194,-163.05 -3.95,-0.86 -7.98,-1.56 -12.09,-2.11 z" fill="url(#paint0_linear)" id="path833" style="opacity:1;fill:url(#linearGradient955);fill-opacity:1;stroke-width:0.99663;stroke-miterlimit:4;stroke-dasharray:none"/>
  <path id="circle835" style="fill:#ffffff" d="m 777,739.22961 c -10e-6,172.0367 -139.4633,311.49999 -311.5,311.49999 -172.0367,0 -311.5,-139.46329 -311.5,-311.49999 0,-86.01835 43.21978,-161.79392 99.59019,-218.16433 56.37041,-56.37041 125.89146,-93.33567 211.90981,-93.33567 172.0367,0 311.5,139.4633 311.5,311.5 z"/>
  <path d="m 193.3346,601.23347 c 184.5,13 293.5,-32 369,-143.5 0,0 -98.72826,-51.22389 -229.26253,7.52241 C 241.13673,506.63091 193.3346,601.23347 193.3346,601.23347 Z" fill="#b4b4b4" id="path837"/>
  <path d="m 711,578.7296 c -74,-8 -140,-32 -171.5,-122.5 0,0 65.43,14.935 131.5,75.114 68.62,62.5 40,47.386 40,47.386 z" fill="#b4b4b4" id="path839"/>
  <path d="M 527,605.7296 H 404 l 30,30 v 90 c 4.5,-29.5 60.5,-30.5 63.5,0 l 7.5,-90 z" fill="#000000" id="path843"/>
  <path style="fill:none;fill-opacity:1;stroke:#000000;stroke-width:45.7773;stroke-miterlimit:4;stroke-dasharray:none;stroke-opacity:1;stop-color:#000000" id="path890" d="m 750.44469,903.81601 c -9.82484,16.99118 -263.13572,163.01729 -282.76293,163.00429 -19.62721,-0.013 -272.74497,-146.37354 -282.54735,-163.37768 -9.80238,-17.00415 -9.60925,-309.39086 0.21558,-326.38204 9.82483,-16.99118 263.13571,-163.01729 282.76293,-163.00433 19.62721,0.013 272.74497,146.37357 282.54734,163.37772 9.80238,17.00415 9.60926,309.39086 -0.21557,326.38204 z"/>
  <path d="m 81.12,645.7296 c 0,-22.091 17.91,-40 40,-40 h 284.9 c 24.18,0 42.83,21.292 39.65,45.264 l -24.76,186.5 c -2.64,19.882 -19.6,34.736 -39.65,34.736 H 121.12 c -22.09,0 -40,-17.909 -40,-40 z" fill="#000000" id="path845"/>
  <path d="m 199.1,828.2796 v -16.5 h -5.55 c -3.6,0 -6,-2.55 -7.2,-6.3 l -22.8,-68.7 c -1.5,-4.35 -3.3,-7.5 -5.7,-9.9 -4.5,-4.65 -10.35,-6.15 -16.95,-6.15 h -7.2 v 17.25 h 4.8 c 4.05,0 7.2,1.5 8.55,6.3 l 3.15,11.1 -28.2,72.9 h 20.55 l 16.95,-48 9,28.95 c 3.45,11.25 9.3,19.05 22.5,19.05 z" fill="#ffffff" id="path847"/>
  <path d="m 231.8,811.7796 v 16.5 h 56 v -16.5 z" fill="#ffffff" id="path849"/>
  <path d="m 486.01,650.9966 c -3.18,-23.973 15.47,-45.267 39.65,-45.267 H 810 c 22.09,0 40,17.909 40,40 v 186.096 c 0,22.091 -17.91,40.004 -40,40.004 H 550.38 c -20.05,0 -37.01,-14.856 -39.65,-34.738 z" fill="#000000" id="path851"/>
  <path d="m 632.3,828.7296 v -16.5 h -5.55 c -3.6,0 -6,-2.55 -7.2,-6.3 l -22.8,-68.7 c -1.5,-4.35 -3.3,-7.5 -5.7,-9.9 -4.5,-4.65 -10.35,-6.15 -16.95,-6.15 h -7.2 v 17.25 h 4.8 c 4.05,0 7.2,1.5 8.55,6.3 l 3.15,11.1 -28.2,72.9 h 20.55 l 16.95,-48 9,28.95 c 3.45,11.25 9.3,19.05 22.5,19.05 z" fill="#ffffff" id="path853"/>
  <path d="m 665,812.2296 v 16.5 h 56 v -16.5 z" fill="#ffffff" id="path855"/>
  <defs id="defs882">
    <rect x="-146.0224" y="1973.3871" width="678.29761" height="433.35678" id="rect1316"/>
    <rect x="-1740.4928" y="364.78558" width="296.75519" height="322.66238" id="rect1310"/>
    <linearGradient id="linearGradient953-1">
      <stop style="stop-color:#539e43;stop-opacity:1" offset="0" id="stop949"/>
      <stop style="stop-color:#288813;stop-opacity:1" offset="0.9214" id="stop997"/>
      <stop style="stop-color:#539e43;stop-opacity:0;" offset="1" id="stop951"/>
    </linearGradient>
    <linearGradient id="linearGradient955" x1="1035.3191" y1="733.71362" x2="2047.2573" y2="748.70203" gradientUnits="userSpaceOnUse" gradientTransform="translate(-1017,-139.2704)" xlink:href="#linearGradient953-1"/>
  </defs>
  <text id="text1308" style="font-style:normal;font-weight:normal;font-size:133.515px;line-height:1.25;font-family:sans-serif;white-space:pre;shape-inside:url(#rect1310);fill:#000000;fill-opacity:1;stroke:none" transform="translate(0,0.19898823)"/>
  <text id="text1314" style="font-style:normal;font-weight:normal;font-size:133.515px;line-height:1.25;font-family:sans-serif;white-space:pre;shape-inside:url(#rect1316);fill:#000000;fill-opacity:1;stroke:none" transform="translate(0,0.19898823)"/>
  <g id="g1472" transform="translate(-31.649993)">
    <path d="m 452.01869,1577.0084 c 8.547,-11.45 18.889,-20.43 31.026,-26.92 12.136,-6.6701 25.042,-10 38.71803,-10 34.017,0 59.23,12.65 75.641,37.95 16.581,25.12 24.872,60.59 24.872,106.41 0,28.37 -4.274,53.59 -12.821,75.64 -8.376,21.88 -20.769,39.06 -37.179,51.54 -16.24,12.3 -35.898,18.46 -58.97503,18.46 -13.675,0 -26.41,-2.91 -38.205,-8.72 -11.624,-5.64 -21.367,-13.85 -29.231,-24.62 l -3.077,24.62 h -71.795 v -380.51 l 81.026,-8.46 z m 40,194.1 c 31.11103,0 46.66703,-28.54 46.66703,-85.6401 0,-21.88 -1.71,-39.0599 -5.128,-51.54 -3.419,-12.65 -8.291,-21.45 -14.616,-26.41 -6.15403,-5.1199 -13.76103,-7.69 -22.82003,-7.69 -16.752,0 -31.453,10.51 -44.103,31.54 v 114.87 c 5.299,8.3801 11.111,14.62 17.436,18.72 6.496,4.1001 14.017,6.1501 22.564,6.1501 z" id="path1251-8" style="fill-opacity: 1; fill: rgb(65, 148, 47);"/>
    <path d="m 744.37647,1577.0084 c 8.547,-11.45 18.889,-20.43 31.026,-26.92 12.136,-6.6702 25.042,-10 38.71803,-10 34.01699,0 59.22999,12.65 75.641,37.95 16.581,25.1199 24.872,60.5899 24.872,106.41 0,28.37 -4.274,53.59 -12.821,75.64 -8.376,21.88 -20.769,39.06 -37.17901,51.54 -16.24,12.3 -35.89799,18.46 -58.97502,18.46 -13.675,0 -26.41,-2.91 -38.205,-8.72 -11.624,-5.64 -21.367,-13.85 -29.231,-24.62 l -3.077,24.62 h -71.795 v -380.51 l 81.026,-8.46 z m 40,194.1 c 31.11103,0 46.66703,-28.54 46.66703,-85.6402 0,-21.88 -1.71,-39.0599 -5.128,-51.54 -3.419,-12.65 -8.291,-21.45 -14.616,-26.41 -6.15403,-5.1199 -13.76103,-7.69 -22.82003,-7.69 -16.752,0 -31.453,10.51 -44.103,31.54 v 114.87 c 5.299,8.3801 11.111,14.62 17.436,18.72 6.496,4.1001 14.017,6.1502 22.564,6.1502 z" id="path1251-8-8" style="fill-opacity: 1; fill: rgb(65, 148, 47);"/>
    <path d="m 175.04796,1578.0327 c 22.73,-23.94 49.4,-35.9 80,-35.9 24.1,0 42.56,7.09 55.38,21.28 12.99,14.02 19.49,34.02 19.49,60 v 200 h -81.03 v -177.44 c 0,-11.11 -0.85,-19.82 -2.56,-26.15 -1.54,-6.32 -4.19,-10.85 -7.95,-13.59 -3.76,-2.91 -8.98,-4.36 -15.64,-4.36 -8.21,0 -16.16,2.82 -23.85,8.46 -7.69,5.64 -15.64,13.85 -23.84,24.62 v 188.46 H 94.017961 v -274.134 l 81.029999,-7.95 z" id="path1261-9" style="fill-opacity: 1; fill: rgb(65, 148, 47);"/>
  </g>
</svg>