<?xml version="1.0" encoding="UTF-8" standalone="no"?>
<svg
   width="279.22012"
   height="373.3071"
   viewBox="0 0 932.00005 1245.5092"
   fill="none"
   version="1.1"
   id="svg884"
   sodipodi:docname="nbb.svg"
   inkscape:version="1.1.1 (3bf5ae0d25, 2021-09-20)"
   xmlns:inkscape="http://www.inkscape.org/namespaces/inkscape"
   xmlns:sodipodi="http://sodipodi.sourceforge.net/DTD/sodipodi-0.dtd"
   xmlns:xlink="http://www.w3.org/1999/xlink"
   xmlns="http://www.w3.org/2000/svg"
   xmlns:svg="http://www.w3.org/2000/svg"
   xmlns:rdf="http://www.w3.org/1999/02/22-rdf-syntax-ns#"
   xmlns:cc="http://creativecommons.org/ns#"
   xmlns:dc="http://purl.org/dc/elements/1.1/">
  <metadata
     id="metadata888">
    <rdf:RDF>
      <cc:Work
         rdf:about="">
        <dc:format>image/svg+xml</dc:format>
        <dc:type
           rdf:resource="http://purl.org/dc/dcmitype/StillImage" />
        <dc:title />
      </cc:Work>
    </rdf:RDF>
  </metadata>
  <sodipodi:namedview
     pagecolor="#ffffff"
     bordercolor="#666666"
     borderopacity="1"
     objecttolerance="10"
     gridtolerance="10"
     guidetolerance="10"
     inkscape:pageopacity="0"
     inkscape:pageshadow="2"
     inkscape:window-width="3840"
     inkscape:window-height="2084"
     id="namedview886"
     showgrid="false"
     inkscape:zoom="5.7998321"
     inkscape:cx="119.05517"
     inkscape:cy="238.88623"
     inkscape:window-x="0"
     inkscape:window-y="0"
     inkscape:window-maximized="1"
     inkscape:current-layer="svg884"
     inkscape:pagecheckerboard="0" />
  <path
     fill-rule="evenodd"
     clip-rule="evenodd"
     d="M 725.91,1080.4206 C 840.93,998.91061 916,864.74061 916,713.03061 916,464.50261 744,141.03061 466,-0.46938776 190.5,148.53061 16,464.50261 16,713.03061 c 0,151.71 75.07,285.88 190.09,367.38999 -4.11,0.55 -8.14,1.25 -12.09,2.11 -87.39,19.07 -194,163.05 -194,163.05 h 264 c 46.97,0 91.63,-17.64 126.96,-37.43 17.16,22.7 44.38,37.38 75.04,37.38 30.66,0 57.89,-14.68 75.04,-37.38 35.33,19.79 79.99,37.43 126.96,37.43 h 264 c 0,0 -106.61,-143.98 -194,-163.05 -3.95,-0.86 -7.98,-1.56 -12.09,-2.11 z"
     fill="url(#paint0_linear)"
     id="path833"
     style="opacity:1;fill:url(#linearGradient955);fill-opacity:1;stroke-width:0.99663;stroke-miterlimit:4;stroke-dasharray:none" />
  <path
     id="circle835"
     style="fill:#ffffff"
     d="m 777,739.03064 c -2e-5,172.03668 -139.46332,311.49996 -311.5,311.49996 -172.03668,0 -311.5,-139.46328 -311.5,-311.49996 0,-86.01835 30.68821,-137.88589 87.05862,-194.2563 56.37041,-56.37041 138.42303,-117.2437 224.44138,-117.2437 172.0367,0 311.5,139.4633 311.5,311.5 z"
     sodipodi:nodetypes="ssssss" />
  <path
     d="m 193.3346,601.03448 c 184.5,13 293.5,-32 369,-143.5 0,0 -107.5685,-55.37135 -228.37377,10.95478 -88.3732,48.51985 -140.62623,132.54522 -140.62623,132.54522 z"
     fill="#b4b4b4"
     id="path837"
     sodipodi:nodetypes="ccsc" />
  <path
     d="m 711,578.53061 c -74,-8 -140,-32 -171.5,-122.5 0,0 65.43,14.935 131.5,75.114 68.62,62.5 40,47.386 40,47.386 z"
     fill="#b4b4b4"
     id="path839" />
  <path
     d="M 527,605.53061 H 404 l 30,30 v 90 c 4.5,-29.5 60.5,-30.5 63.5,0 l 7.5,-90 z"
     fill="#000000"
     id="path843" />
  <path
     sodipodi:type="star"
     style="fill:none;fill-opacity:1;stroke:#000000;stroke-width:45.7773;stroke-miterlimit:4;stroke-dasharray:none;stroke-opacity:1;stop-color:#000000"
     id="path890"
     sodipodi:sides="6"
     sodipodi:cx="467.89734"
     sodipodi:cy="740.23929"
     sodipodi:r1="326.38211"
     sodipodi:r2="122.32488"
     sodipodi:arg1="0.52425928"
     sodipodi:arg2="1.047858"
     inkscape:flatsided="true"
     inkscape:rounded="0.0601357"
     inkscape:randomized="0"
     d="m 750.44469,903.61703 c -9.82484,16.99119 -263.13572,163.01727 -282.76293,163.00437 -19.62721,-0.013 -272.74497,-146.37361 -282.54735,-163.37776 -9.80238,-17.00414 -9.60925,-309.39085 0.21558,-326.38204 9.82483,-16.99118 263.13571,-163.01728 282.76293,-163.00432 19.62721,0.013 272.74497,146.37357 282.54734,163.37771 9.80238,17.00415 9.60926,309.39086 -0.21557,326.38204 z"
     inkscape:transform-center-x="42.04665"
     inkscape:transform-center-y="-18.510492" />
  <path
     d="m 81.12,645.53061 c 0,-22.091 17.91,-40 40,-40 h 284.9 c 24.18,0 42.83,21.292 39.65,45.264 l -24.76,186.5 c -2.64,19.882 -19.6,34.736 -39.65,34.736 H 121.12 c -22.09,0 -40,-17.909 -40,-40 z"
     fill="#000000"
     id="path845" />
  <path
     d="m 199.1,828.08061 v -16.5 h -5.55 c -3.6,0 -6,-2.55 -7.2,-6.3 l -22.8,-68.7 c -1.5,-4.35 -3.3,-7.5 -5.7,-9.9 -4.5,-4.65 -10.35,-6.15 -16.95,-6.15 h -7.2 v 17.25 h 4.8 c 4.05,0 7.2,1.5 8.55,6.3 l 3.15,11.1 -28.2,72.9 h 20.55 l 16.95,-48 9,28.95 c 3.45,11.25 9.3,19.05 22.5,19.05 z"
     fill="#ffffff"
     id="path847" />
  <path
     d="m 231.8,811.58061 v 16.5 h 56 v -16.5 z"
     fill="#ffffff"
     id="path849" />
  <path
     d="m 486.01,650.79761 c -3.18,-23.973 15.47,-45.267 39.65,-45.267 H 810 c 22.09,0 40,17.909 40,40 v 186.096 c 0,22.091 -17.91,40.004 -40,40.004 H 550.38 c -20.05,0 -37.01,-14.856 -39.65,-34.738 z"
     fill="#000000"
     id="path851" />
  <path
     d="m 632.3,828.53061 v -16.5 h -5.55 c -3.6,0 -6,-2.55 -7.2,-6.3 l -22.8,-68.7 c -1.5,-4.35 -3.3,-7.5 -5.7,-9.9 -4.5,-4.65 -10.35,-6.15 -16.95,-6.15 h -7.2 v 17.25 h 4.8 c 4.05,0 7.2,1.5 8.55,6.3 l 3.15,11.1 -28.2,72.9 h 20.55 l 16.95,-48 9,28.95 c 3.45,11.25 9.3,19.05 22.5,19.05 z"
     fill="#ffffff"
     id="path853" />
  <path
     d="m 665,812.03061 v 16.5 h 56 v -16.5 z"
     fill="#ffffff"
     id="path855" />
  <defs
     id="defs882">
    <linearGradient
       inkscape:collect="always"
       id="linearGradient953-1">
      <stop
         style="stop-color:#539e43;stop-opacity:1"
         offset="0"
         id="stop949" />
      <stop
         style="stop-color:#288813;stop-opacity:1"
         offset="0.92143548"
         id="stop997" />
      <stop
         style="stop-color:#539e43;stop-opacity:0;"
         offset="1"
         id="stop951" />
    </linearGradient>
    <linearGradient
       id="paint0_linear"
       x1="1499"
       y1="139"
       x2="1499"
       y2="1385.52"
       gradientUnits="userSpaceOnUse">
      <stop
         stop-color="#E41F26"
         id="stop877" />
      <stop
         offset="1"
         stop-color="#B70000"
         id="stop879" />
    </linearGradient>
    <linearGradient
       inkscape:collect="always"
       xlink:href="#linearGradient953-1"
       id="linearGradient955"
       x1="1035.3191"
       y1="733.71362"
       x2="2047.2573"
       y2="748.70203"
       gradientUnits="userSpaceOnUse"
       gradientTransform="translate(-1017,-139.46939)" />
  </defs>
</svg>
